<svg xmlns="http://www.w3.org/2000/svg" xmlns:v="https://svgstorm.com"
viewBox = "0 0 944 1131"
width="944"
height="1131">
<g fill="None" fill-opacity="0.0" stroke="#FEFEFE" stroke-opacity="1.00" stroke-width="0.3"><path d="
M 0.00 1131.00 
L 944.00 1131.00
L 944.00 0.00
L 0.00 0.00
L 0.00 1131.00
M 595.00 48.00 
C 611.65 53.05 627.01 59.83 644.02 63.98 C 661.03 68.12 677.23 79.75 671.22 98.22 C 665.22 116.69 659.85 130.20 654.23 147.23 C 648.61 164.25 642.39 179.70 638.07 196.07 C 633.75 212.45 624.58 232.91 605.00 227.00 C 585.42 221.09 576.15 214.41 556.98 210.02 C 537.80 205.64 526.26 193.69 533.00 174.00
C 535.17 158.41 542.45 141.49 547.78 125.78 C 553.10 110.06 559.21 92.74 564.32 77.32 C 569.43 61.90 576.56 42.40 595.00 48.00
M 520.00 421.00 
C 520.59 421.98 527.53 422.14 529.00 422.00
C 541.13 420.83 551.11 411.11 563.02 408.02 C 574.94 404.94 591.67 400.38 604.01 404.99 C 616.35 409.60 623.66 414.82 631.77 425.23 C 639.88 435.65 642.84 447.31 644.33 460.67 C 645.82 474.03 643.77 491.04 641.00 504.00 C 638.24 516.96 633.35 528.08 629.68 540.68 C 626.01 553.27 621.11 563.48 617.22 576.22 C 613.33 588.96 610.76 602.34 609.00 616.00 C 607.24 629.66 605.88 647.67 607.00 662.00 C 608.12 676.33 611.23 689.44 613.78 703.22 C 616.33 717.00 619.10 729.37 621.93 743.07 C 624.75 756.78 626.64 769.99 628.93 784.07 C 631.22 798.16 631.43 813.47 633.00 828.00 C 634.57 842.53 633.67 859.57 633.01 874.01 C 632.35 888.45 631.36 905.13 629.67 918.67 C 627.98 932.21 623.98 946.38 621.67 958.67 C 619.37 970.96 612.69 984.70 610.23 995.23 C 607.77 1005.76 596.02 1024.65 587.25 1011.75 C 578.47 998.86 588.58 982.33 587.00 968.00 C 585.42 953.67 589.66 936.82 589.00 922.00 C 588.34 907.18 588.91 889.55 588.00 875.00 C 587.09 860.45 585.06 845.66 583.07 831.93 C 581.09 818.20 578.56 804.59 575.07 791.93 C 571.59 779.26 567.94 767.06 563.68 755.32 C 559.41 743.58 553.89 733.37 548.08 722.92 C 542.28 712.47 535.99 703.75 527.75 695.25 C 519.51 686.75 511.10 678.91 500.77 674.23 C 490.44 669.55 472.44 663.93 461.33 666.33 C 450.22 668.73 434.04 670.34 427.00 680.00
C 420.80 694.37 418.76 717.81 398.00 718.00
C 403.08 744.12 391.25 770.64 375.00 789.00
C 374.22 785.71 373.43 782.41 373.00 779.00
C 370.92 786.80 363.27 798.59 368.99 808.01 C 374.71 817.43 369.66 828.23 364.00 836.00
C 361.29 842.27 355.48 849.52 354.00 856.00
C 350.18 872.68 354.01 889.76 352.00 907.00 C 349.99 924.24 355.65 941.53 354.00 959.00 C 352.35 976.47 360.96 990.50 356.67 1008.67 C 352.38 1026.84 335.91 1010.33 332.70 997.31 C 329.48 984.28 321.34 972.34 319.01 957.99 C 316.68 943.65 310.20 929.41 309.07 913.93 C 307.94 898.44 305.62 881.22 305.01 864.99 C 304.40 848.77 304.99 828.32 306.33 812.33 C 307.67 796.34 309.59 780.53 312.00 765.00 C 314.40 749.47 317.75 735.18 320.98 719.98 C 324.20 704.77 326.64 690.55 329.00 675.00 C 331.36 659.45 331.50 639.58 330.07 623.93 C 328.64 608.27 326.20 593.60 321.68 579.32 C 317.16 565.04 312.56 552.94 308.02 538.98 C 303.49 525.01 299.27 512.31 296.07 497.93 C 292.88 483.54 293.02 462.27 296.33 448.33 C 299.64 434.38 305.48 424.73 316.25 415.25 C 327.01 405.76 342.51 400.78 357.00 402.00 C 371.49 403.22 383.93 409.36 397.23 414.77 C 410.53 420.19 421.87 425.81 436.07 429.93 C 450.28 434.04 469.64 435.60 485.00 433.00
C 494.14 431.46 492.22 427.51 491.93 419.93 C 491.64 412.34 495.86 407.88 499.00 402.00
C 499.53 400.28 500.40 398.70 501.00 397.00
C 502.38 380.14 512.00 363.89 514.00 346.00
C 510.60 346.13 505.85 348.59 503.00 346.00
C 496.25 347.88 489.14 349.61 482.00 350.00
C 476.82 350.84 471.10 350.73 466.00 350.00
C 425.44 348.45 395.42 319.74 356.78 311.22 C 318.14 302.70 273.63 315.42 247.25 346.25 C 220.86 377.08 211.62 420.04 216.00 461.00 C 220.38 501.96 232.39 537.71 250.77 575.23 C 269.15 612.75 270.09 660.74 266.00 703.00
C 267.25 732.31 261.44 762.35 260.01 792.01 C 258.58 821.67 260.84 851.82 260.00 881.00
C 263.72 906.46 268.85 938.53 276.98 962.02 C 285.10 985.52 296.32 1008.76 310.75 1027.25 C 325.18 1045.73 357.37 1065.98 373.92 1041.92 C 390.47 1017.85 383.49 983.24 383.00 954.00 C 382.51 924.76 382.19 889.23 386.00 860.00
C 385.64 847.52 386.34 836.45 391.00 825.00
C 397.37 792.59 406.91 762.18 431.75 737.75 C 456.59 713.33 497.27 718.93 517.25 748.75 C 537.24 778.56 544.71 806.71 551.00 843.00 C 557.28 879.29 558.00 925.12 558.00 964.00
C 558.00 973.67 558.00 983.33 558.00 993.00
C 558.00 1013.84 562.36 1050.91 588.01 1051.99 C 613.65 1053.07 627.83 1031.55 639.31 1013.31 C 650.78 995.06 663.79 971.55 666.00 950.00
C 668.05 930.05 671.91 907.27 678.00 889.00
C 683.83 845.27 681.23 797.47 677.00 754.00 C 672.77 710.53 664.04 667.57 672.00 624.00
C 671.79 599.95 684.16 575.78 694.31 553.31 C 704.45 530.83 709.59 504.12 717.00 481.00
C 722.81 437.38 715.55 391.26 685.75 358.25 C 655.96 325.23 609.92 314.40 568.00 327.00
C 570.88 315.09 573.89 304.34 587.07 304.07 C 600.26 303.81 614.04 302.34 626.01 304.99 C 637.98 307.64 648.12 309.64 658.23 314.77 C 668.34 319.90 676.34 324.45 684.75 331.25 C 693.15 338.06 699.16 343.82 705.75 352.25 C 712.34 360.68 716.97 368.21 721.92 378.08 C 726.88 387.94 729.82 398.86 732.98 410.02 C 736.13 421.18 737.17 434.69 738.00 447.00 C 738.83 459.31 736.83 474.31 735.07 486.07 C 733.32 497.84 731.49 509.98 728.02 521.02 C 724.56 532.07 721.05 542.43 717.03 553.02 C 713.00 563.62 708.91 572.19 704.70 582.70 C 700.48 593.20 696.03 601.88 693.22 613.22 C 690.42 624.57 687.88 638.70 688.00 651.00
C 688.00 658.00 688.00 665.00 688.00 672.00
C 688.00 704.40 694.27 737.14 697.00 769.00 C 699.72 800.87 701.05 840.00 698.22 871.22 C 695.39 902.44 691.67 933.87 682.68 961.68 C 673.68 989.49 665.01 1011.36 648.25 1034.25 C 631.48 1057.13 609.68 1075.06 579.99 1070.01 C 550.31 1064.95 540.41 1030.04 539.00 1004.00
C 535.28 990.86 536.56 972.72 537.00 958.00 C 537.44 943.28 537.40 926.76 537.00 912.00 C 536.60 897.24 535.03 883.93 536.00 871.00
C 532.69 845.56 526.70 811.11 517.68 788.32 C 508.66 765.54 490.80 736.67 464.00 741.00 C 437.20 745.33 425.20 775.95 418.00 797.00
C 417.40 807.66 414.11 817.90 410.00 828.00
C 402.89 864.21 400.58 907.94 401.93 945.07 C 403.27 982.20 409.87 1026.16 387.75 1055.75 C 365.62 1085.33 322.32 1069.66 301.75 1045.25 C 281.18 1020.83 266.73 995.34 257.22 962.78 C 247.72 930.21 240.32 890.85 239.01 853.99 C 237.70 817.13 240.55 768.62 244.33 732.33 C 248.11 696.04 254.63 650.69 245.01 615.99 C 235.39 581.29 220.62 557.22 210.07 523.93 C 199.52 490.63 191.84 447.84 198.00 413.00 C 204.15 378.16 214.70 352.68 239.75 327.75 C 264.81 302.82 293.91 291.93 329.00 290.00 C 364.09 288.07 396.24 306.41 427.00 320.00
C 432.91 321.13 439.85 322.16 446.23 325.77 C 452.61 329.38 463.12 327.83 469.67 329.67 C 476.23 331.51 486.24 327.86 492.22 327.22 C 498.20 326.58 509.60 319.14 514.00 323.00
C 517.68 326.22 515.40 336.08 520.00 339.00
C 523.04 332.21 524.07 324.83 527.00 318.00
C 528.16 309.65 529.19 300.89 533.00 292.00 C 536.81 283.11 537.88 276.94 529.00 270.00
C 513.55 263.33 507.78 251.19 510.98 235.98 C 514.17 220.77 524.77 205.49 540.02 211.98 C 555.28 218.46 568.84 220.74 582.07 226.93 C 595.31 233.12 612.81 232.38 618.77 246.23 C 624.73 260.07 615.07 277.36 603.77 285.77 C 592.47 294.18 568.08 278.45 563.69 294.70 C 559.31 310.94 553.61 320.98 549.07 336.07 C 544.54 351.17 538.98 363.49 534.08 378.08 C 529.17 392.66 524.72 406.47 520.00 421.00 Z"/>
</g>
<g fill="None" fill-opacity="0.0" stroke="#DAEEEE" stroke-opacity="1.00" stroke-width="0.3"><path d="
M 533.00 174.00 
C 540.09 153.28 548.88 123.41 556.98 103.98 C 565.07 84.55 567.64 45.98 595.00 48.00
C 576.56 42.40 569.43 61.90 564.32 77.32 C 559.21 92.74 553.10 110.06 547.78 125.78 C 542.45 141.49 535.17 158.41 533.00 174.00 Z"/>
</g>
<g fill="None" fill-opacity="0.0" stroke="#276365" stroke-opacity="1.00" stroke-width="0.3"><path d="
M 533.00 174.00 
C 526.26 193.69 537.80 205.64 556.98 210.02 C 576.15 214.41 585.42 221.09 605.00 227.00 C 624.58 232.91 633.75 212.45 638.07 196.07 C 642.39 179.70 648.61 164.25 654.23 147.23 C 659.85 130.20 665.22 116.69 671.22 98.22 C 677.23 79.75 661.03 68.12 644.02 63.98 C 627.01 59.83 611.65 53.05 595.00 48.00
C 567.64 45.98 565.07 84.55 556.98 103.98 C 548.88 123.41 540.09 153.28 533.00 174.00
M 595.00 66.00 
C 603.44 66.48 613.96 73.80 622.68 76.32 C 631.39 78.84 642.51 81.80 650.68 86.32 C 658.84 90.85 648.41 105.56 646.68 113.68 C 644.95 121.79 639.14 132.58 637.02 142.02 C 634.91 151.47 629.58 159.58 627.08 170.08 C 624.57 180.57 620.05 186.36 617.68 198.68 C 615.31 211.00 605.58 207.49 595.77 203.23 C 585.96 198.97 577.49 196.72 567.32 193.68 C 557.15 190.64 546.29 186.16 551.98 174.98 C 557.66 163.79 557.60 156.85 561.98 146.98 C 566.36 137.10 567.62 127.52 571.78 118.78 C 575.93 110.03 577.35 97.70 581.32 90.32 C 585.29 82.94 585.31 65.45 595.00 66.00 Z"/>
</g>
<g fill="None" fill-opacity="0.0" stroke="#7AC1BB" stroke-opacity="1.00" stroke-width="0.3"><path d="
M 595.00 66.00 
C 585.31 65.45 585.29 82.94 581.32 90.32 C 577.35 97.70 575.93 110.03 571.78 118.78 C 567.62 127.52 566.36 137.10 561.98 146.98 C 557.60 156.85 557.66 163.79 551.98 174.98 C 546.29 186.16 557.15 190.64 567.32 193.68 C 577.49 196.72 585.96 198.97 595.77 203.23 C 605.58 207.49 615.31 211.00 617.68 198.68 C 620.05 186.36 624.57 180.57 627.08 170.08 C 629.58 159.58 634.91 151.47 637.02 142.02 C 639.14 132.58 644.95 121.79 646.68 113.68 C 648.41 105.56 658.84 90.85 650.68 86.32 C 642.51 81.80 631.39 78.84 622.68 76.32 C 613.96 73.80 603.44 66.48 595.00 66.00
M 619.00 85.00 
C 629.64 86.99 621.69 104.25 619.02 111.02 C 616.36 117.80 611.75 131.45 609.02 139.02 C 606.30 146.60 602.16 160.11 599.03 167.02 C 595.89 173.94 594.76 192.27 584.00 190.00 C 573.23 187.72 581.53 171.33 584.31 164.31 C 587.08 157.28 590.85 143.54 593.98 135.98 C 597.10 128.41 600.70 114.85 603.93 107.93 C 607.16 101.00 608.68 83.08 619.00 85.00 Z"/>
</g>
<g fill="None" fill-opacity="0.0" stroke="#236364" stroke-opacity="1.00" stroke-width="0.3"><path d="
M 619.00 85.00 
C 608.68 83.08 607.16 101.00 603.93 107.93 C 600.70 114.85 597.10 128.41 593.98 135.98 C 590.85 143.54 587.08 157.28 584.31 164.31 C 581.53 171.33 573.23 187.72 584.00 190.00 C 594.76 192.27 595.89 173.94 599.03 167.02 C 602.16 160.11 606.30 146.60 609.02 139.02 C 611.75 131.45 616.36 117.80 619.02 111.02 C 621.69 104.25 629.64 86.99 619.00 85.00 Z"/>
</g>
<g fill="None" fill-opacity="0.0" stroke="#286365" stroke-opacity="1.00" stroke-width="0.3"><path d="
M 529.00 270.00 
C 535.27 272.71 543.11 270.91 539.01 282.01 C 534.91 293.10 530.90 306.61 527.00 318.00
C 524.07 324.83 523.04 332.21 520.00 339.00
C 515.40 336.08 517.68 326.22 514.00 323.00
C 485.58 336.20 454.69 332.23 427.00 320.00
C 396.24 306.41 364.09 288.07 329.00 290.00 C 293.91 291.93 264.81 302.82 239.75 327.75 C 214.70 352.68 204.15 378.16 198.00 413.00 C 191.84 447.84 199.52 490.63 210.07 523.93 C 220.62 557.22 235.39 581.29 245.01 615.99 C 254.63 650.69 248.11 696.04 244.33 732.33 C 240.55 768.62 237.70 817.13 239.01 853.99 C 240.32 890.85 247.72 930.21 257.22 962.78 C 266.73 995.34 281.18 1020.83 301.75 1045.25 C 322.32 1069.66 365.62 1085.33 387.75 1055.75 C 409.87 1026.16 403.27 982.20 401.93 945.07 C 400.58 907.94 402.89 864.21 410.00 828.00
C 412.07 817.45 414.52 807.17 418.00 797.00
C 425.20 775.95 437.20 745.33 464.00 741.00 C 490.80 736.67 508.66 765.54 517.68 788.32 C 526.70 811.11 532.69 845.56 536.00 871.00
C 541.66 914.46 536.62 960.20 539.00 1004.00
C 540.41 1030.04 550.31 1064.95 579.99 1070.01 C 609.68 1075.06 631.48 1057.13 648.25 1034.25 C 665.01 1011.36 673.68 989.49 682.68 961.68 C 691.67 933.87 695.39 902.44 698.22 871.22 C 701.05 840.00 699.72 800.87 697.00 769.00 C 694.27 737.14 688.00 704.40 688.00 672.00
C 687.36 665.39 687.37 657.54 688.00 651.00
C 687.88 638.70 690.42 624.57 693.22 613.22 C 696.03 601.88 700.48 593.20 704.70 582.70 C 708.91 572.19 713.00 563.62 717.03 553.02 C 721.05 542.43 724.56 532.07 728.02 521.02 C 731.49 509.98 733.32 497.84 735.07 486.07 C 736.83 474.31 738.83 459.31 738.00 447.00 C 737.17 434.69 736.13 421.18 732.98 410.02 C 729.82 398.86 726.88 387.94 721.92 378.08 C 716.97 368.21 712.34 360.68 705.75 352.25 C 699.16 343.82 693.15 338.06 684.75 331.25 C 676.34 324.45 668.34 319.90 658.23 314.77 C 648.12 309.64 637.98 307.64 626.01 304.99 C 614.04 302.34 600.26 303.81 587.07 304.07 C 573.89 304.34 570.88 315.09 568.00 327.00
C 609.92 314.40 655.96 325.23 685.75 358.25 C 715.55 391.26 722.81 437.38 717.00 481.00
C 710.22 531.86 681.08 574.25 672.00 624.00
C 664.04 667.57 672.77 710.53 677.00 754.00 C 681.23 797.47 683.83 845.27 678.00 889.00
C 675.20 909.97 671.38 930.16 666.00 950.00
C 663.79 971.55 650.78 995.06 639.31 1013.31 C 627.83 1031.55 613.65 1053.07 588.01 1051.99 C 562.36 1050.91 558.00 1013.84 558.00 993.00
C 557.12 983.88 557.12 973.05 558.00 964.00
C 558.00 925.12 557.28 879.29 551.00 843.00 C 544.71 806.71 537.24 778.56 517.25 748.75 C 497.27 718.93 456.59 713.33 431.75 737.75 C 406.91 762.18 397.37 792.59 391.00 825.00
C 388.73 836.55 387.53 848.22 386.00 860.00
C 382.19 889.23 382.51 924.76 383.00 954.00 C 383.49 983.24 390.47 1017.85 373.92 1041.92 C 357.37 1065.98 325.18 1045.73 310.75 1027.25 C 296.32 1008.76 285.10 985.52 276.98 962.02 C 268.85 938.53 263.72 906.46 260.00 881.00
C 251.44 822.41 260.41 760.76 266.00 703.00
C 270.09 660.74 269.15 612.75 250.77 575.23 C 232.39 537.71 220.38 501.96 216.00 461.00 C 211.62 420.04 220.86 377.08 247.25 346.25 C 273.63 315.42 318.14 302.70 356.78 311.22 C 395.42 319.74 425.44 348.45 466.00 350.00
C 471.26 350.20 476.75 350.28 482.00 350.00
C 489.14 349.61 496.25 347.88 503.00 346.00
C 508.49 344.47 513.99 342.63 519.00 340.00
C 514.14 359.31 506.74 377.90 501.00 397.00
C 500.40 398.70 499.53 400.28 499.00 402.00
C 492.76 422.09 494.55 438.90 505.00 458.00
C 512.82 448.74 513.94 432.25 520.00 421.00
C 524.72 406.47 529.17 392.66 534.08 378.08 C 538.98 363.49 544.54 351.17 549.07 336.07 C 553.61 320.98 559.31 310.94 563.69 294.70 C 568.08 278.45 592.47 294.18 603.77 285.77 C 615.07 277.36 624.73 260.07 618.77 246.23 C 612.81 232.38 595.31 233.12 582.07 226.93 C 568.84 220.74 555.28 218.46 540.02 211.98 C 524.77 205.49 514.17 220.77 510.98 235.98 C 507.78 251.19 513.55 263.33 529.00 270.00
M 534.00 228.00 
C 540.37 227.41 548.24 234.78 555.22 235.78 C 562.21 236.77 570.34 241.76 577.22 243.78 C 584.11 245.79 592.48 248.80 598.70 252.31 C 604.91 255.81 599.73 267.41 593.92 270.92 C 588.11 274.43 577.15 269.08 570.93 267.07 C 564.70 265.06 554.90 261.50 548.78 259.22 C 542.65 256.95 532.22 254.14 528.70 249.30 C 525.18 244.47 528.46 228.52 534.00 228.00 Z"/>
</g>
<g fill="None" fill-opacity="0.0" stroke="#7FC6BF" stroke-opacity="1.00" stroke-width="0.3"><path d="
M 534.00 228.00 
C 528.46 228.52 525.18 244.47 528.70 249.30 C 532.22 254.14 542.65 256.95 548.78 259.22 C 554.90 261.50 564.70 265.06 570.93 267.07 C 577.15 269.08 588.11 274.43 593.92 270.92 C 599.73 267.41 604.91 255.81 598.70 252.31 C 592.48 248.80 584.11 245.79 577.22 243.78 C 570.34 241.76 562.21 236.77 555.22 235.78 C 548.24 234.78 540.37 227.41 534.00 228.00 Z"/>
</g>
<g fill="None" fill-opacity="0.0" stroke="#DCF0F0" stroke-opacity="1.00" stroke-width="0.3"><path d="
M 527.00 318.00 
C 530.90 306.61 534.91 293.10 539.01 282.01 C 543.11 270.91 535.27 272.71 529.00 270.00
C 537.88 276.94 536.81 283.11 533.00 292.00 C 529.19 300.89 528.16 309.65 527.00 318.00 Z"/>
</g>
<g fill="None" fill-opacity="0.0" stroke="#D7EBEC" stroke-opacity="1.00" stroke-width="0.3"><path d="
M 427.00 320.00 
C 454.69 332.23 485.58 336.20 514.00 323.00
C 509.60 319.14 498.20 326.58 492.22 327.22 C 486.24 327.86 476.23 331.51 469.67 329.67 C 463.12 327.83 452.61 329.38 446.23 325.77 C 439.85 322.16 432.91 321.13 427.00 320.00 Z"/>
</g>
<g fill="None" fill-opacity="0.0" stroke="#DAEFF0" stroke-opacity="1.00" stroke-width="0.3"><path d="
M 503.00 346.00 
C 505.85 348.59 510.60 346.13 514.00 346.00
C 512.00 363.89 502.38 380.14 501.00 397.00
C 506.74 377.90 514.14 359.31 519.00 340.00
C 513.99 342.63 508.49 344.47 503.00 346.00 Z"/>
</g>
<g fill="None" fill-opacity="0.0" stroke="#97B5B5" stroke-opacity="1.00" stroke-width="0.3"><path d="
M 482.00 350.00 
C 476.75 350.28 471.26 350.20 466.00 350.00
C 471.10 350.73 476.82 350.84 482.00 350.00 Z"/>
</g>
<g fill="None" fill-opacity="0.0" stroke="#739592" stroke-opacity="1.00" stroke-width="0.3"><path d="
M 354.00 856.00 
C 351.18 857.84 344.45 857.57 342.00 855.00
C 343.71 876.12 336.79 899.32 339.00 921.00 C 341.21 942.68 341.15 965.34 342.00 986.00
C 329.07 952.61 322.38 922.64 319.02 885.98 C 315.67 849.32 319.17 806.54 324.78 770.78 C 330.39 735.02 339.16 701.32 343.00 665.00 C 346.84 628.68 340.59 591.41 328.68 558.32 C 316.77 525.23 304.14 493.75 307.98 456.98 C 311.81 420.21 351.17 406.37 381.68 422.32 C 412.19 438.27 445.23 449.05 481.00 447.00
C 482.58 442.39 484.59 437.96 485.00 433.00
C 469.64 435.60 450.28 434.04 436.07 429.93 C 421.87 425.81 410.53 420.19 397.23 414.77 C 383.93 409.36 371.49 403.22 357.00 402.00 C 342.51 400.78 327.01 405.76 316.25 415.25 C 305.48 424.73 299.64 434.38 296.33 448.33 C 293.02 462.27 292.88 483.54 296.07 497.93 C 299.27 512.31 303.49 525.01 308.02 538.98 C 312.56 552.94 317.16 565.04 321.68 579.32 C 326.20 593.60 328.64 608.27 330.07 623.93 C 331.50 639.58 331.36 659.45 329.00 675.00 C 326.64 690.55 324.20 704.77 320.98 719.98 C 317.75 735.18 314.40 749.47 312.00 765.00 C 309.59 780.53 307.67 796.34 306.33 812.33 C 304.99 828.32 304.40 848.77 305.01 864.99 C 305.62 881.22 307.94 898.44 309.07 913.93 C 310.20 929.41 316.68 943.65 319.01 957.99 C 321.34 972.34 329.48 984.28 332.70 997.31 C 335.91 1010.33 352.38 1026.84 356.67 1008.67 C 360.96 990.50 352.35 976.47 354.00 959.00 C 355.65 941.53 349.99 924.24 352.00 907.00 C 354.01 889.76 350.18 872.68 354.00 856.00 Z"/>
</g>
<g fill="None" fill-opacity="0.0" stroke="#D3DDDC" stroke-opacity="1.00" stroke-width="0.3"><path d="
M 485.00 433.00 
C 487.91 442.96 489.46 454.42 493.77 464.23 C 498.08 474.03 500.60 486.80 497.02 497.02 C 493.45 507.25 489.38 514.14 480.75 521.75 C 472.12 529.36 480.19 545.20 476.22 555.22 C 472.25 565.24 467.64 571.90 456.75 576.75 C 445.87 581.61 459.52 593.04 455.02 603.02 C 450.53 613.01 448.97 623.24 441.00 630.00
C 436.38 616.80 436.25 602.25 432.07 588.93 C 427.89 575.61 434.59 562.17 450.07 559.07 C 465.56 555.98 460.29 539.51 455.02 527.98 C 449.76 516.44 458.58 497.62 469.00 493.00
C 470.25 499.25 470.50 505.78 472.00 512.00
C 478.77 505.58 486.64 490.50 479.69 480.31 C 472.75 470.11 476.57 457.77 481.00 447.00
C 445.23 449.05 412.19 438.27 381.68 422.32 C 351.17 406.37 311.81 420.21 307.98 456.98 C 304.14 493.75 316.77 525.23 328.68 558.32 C 340.59 591.41 346.84 628.68 343.00 665.00 C 339.16 701.32 330.39 735.02 324.78 770.78 C 319.17 806.54 315.67 849.32 319.02 885.98 C 322.38 922.64 329.07 952.61 342.00 986.00
C 341.15 965.34 341.21 942.68 339.00 921.00 C 336.79 899.32 343.71 876.12 342.00 855.00
C 340.86 840.92 343.68 827.33 347.33 813.33 C 350.97 799.33 353.27 786.27 359.00 773.00
C 363.28 781.17 362.51 794.00 365.98 804.02 C 369.44 814.05 368.67 826.54 364.00 836.00
C 369.66 828.23 374.71 817.43 368.99 808.01 C 363.27 798.59 370.92 786.80 373.00 779.00
C 371.87 764.81 366.38 748.94 375.75 737.75 C 385.13 726.57 375.86 706.24 385.77 695.77 C 395.68 685.30 398.13 672.75 413.00 670.00
C 414.60 659.29 405.26 646.08 409.00 636.00 C 412.74 625.91 417.30 618.06 424.00 611.00
C 425.22 626.04 428.90 640.42 432.00 655.00
C 432.30 656.46 433.82 658.88 433.00 661.00
C 464.16 646.57 503.48 653.46 528.70 677.30 C 553.91 701.15 565.98 724.32 577.98 757.03 C 589.97 789.73 596.61 826.88 600.00 864.00 C 603.39 901.12 600.27 949.82 600.00 987.00
C 612.34 951.12 617.71 915.87 620.00 877.00 C 622.29 838.13 618.75 795.03 611.07 757.93 C 603.39 720.82 595.44 683.16 594.00 645.00 C 592.56 606.84 605.64 571.37 616.78 537.78 C 627.91 504.18 642.98 464.43 621.08 431.92 C 599.18 399.40 553.91 426.40 528.00 437.00
C 528.51 432.04 526.89 426.53 529.00 422.00
C 527.53 422.14 520.59 421.98 520.00 421.00
C 513.94 432.25 512.82 448.74 505.00 458.00
C 494.55 438.90 492.76 422.09 499.00 402.00
C 495.86 407.88 491.64 412.34 491.93 419.93 C 492.22 427.51 494.14 431.46 485.00 433.00 Z"/>
</g>
<g fill="None" fill-opacity="0.0" stroke="#749692" stroke-opacity="1.00" stroke-width="0.3"><path d="
M 529.00 422.00 
C 526.89 426.53 528.51 432.04 528.00 437.00
C 553.91 426.40 599.18 399.40 621.08 431.92 C 642.98 464.43 627.91 504.18 616.78 537.78 C 605.64 571.37 592.56 606.84 594.00 645.00 C 595.44 683.16 603.39 720.82 611.07 757.93 C 618.75 795.03 622.29 838.13 620.00 877.00 C 617.71 915.87 612.34 951.12 600.00 987.00
C 600.27 949.82 603.39 901.12 600.00 864.00 C 596.61 826.88 589.97 789.73 577.98 757.03 C 565.98 724.32 553.91 701.15 528.70 677.30 C 503.48 653.46 464.16 646.57 433.00 661.00
C 433.82 658.88 432.30 656.46 432.00 655.00
C 432.64 664.47 430.55 671.77 427.00 680.00
C 434.04 670.34 450.22 668.73 461.33 666.33 C 472.44 663.93 490.44 669.55 500.77 674.23 C 511.10 678.91 519.51 686.75 527.75 695.25 C 535.99 703.75 542.28 712.47 548.08 722.92 C 553.89 733.37 559.41 743.58 563.68 755.32 C 567.94 767.06 571.59 779.26 575.07 791.93 C 578.56 804.59 581.09 818.20 583.07 831.93 C 585.06 845.66 587.09 860.45 588.00 875.00 C 588.91 889.55 588.34 907.18 589.00 922.00 C 589.66 936.82 585.42 953.67 587.00 968.00 C 588.58 982.33 578.47 998.86 587.25 1011.75 C 596.02 1024.65 607.77 1005.76 610.23 995.23 C 612.69 984.70 619.37 970.96 621.67 958.67 C 623.98 946.38 627.98 932.21 629.67 918.67 C 631.36 905.13 632.35 888.45 633.01 874.01 C 633.67 859.57 634.57 842.53 633.00 828.00 C 631.43 813.47 631.22 798.16 628.93 784.07 C 626.64 769.99 624.75 756.78 621.93 743.07 C 619.10 729.37 616.33 717.00 613.78 703.22 C 611.23 689.44 608.12 676.33 607.00 662.00 C 605.88 647.67 607.24 629.66 609.00 616.00 C 610.76 602.34 613.33 588.96 617.22 576.22 C 621.11 563.48 626.01 553.27 629.68 540.68 C 633.35 528.08 638.24 516.96 641.00 504.00 C 643.77 491.04 645.82 474.03 644.33 460.67 C 642.84 447.31 639.88 435.65 631.77 425.23 C 623.66 414.82 616.35 409.60 604.01 404.99 C 591.67 400.38 574.94 404.94 563.02 408.02 C 551.11 411.11 541.13 420.83 529.00 422.00 Z"/>
</g>
<g fill="None" fill-opacity="0.0" stroke="#235F60" stroke-opacity="1.00" stroke-width="0.3"><path d="
M 481.00 447.00 
C 476.57 457.77 472.75 470.11 479.69 480.31 C 486.64 490.50 478.77 505.58 472.00 512.00
C 470.50 505.78 470.25 499.25 469.00 493.00
C 458.58 497.62 449.76 516.44 455.02 527.98 C 460.29 539.51 465.56 555.98 450.07 559.07 C 434.59 562.17 427.89 575.61 432.07 588.93 C 436.25 602.25 436.38 616.80 441.00 630.00
C 448.97 623.24 450.53 613.01 455.02 603.02 C 459.52 593.04 445.87 581.61 456.75 576.75 C 467.64 571.90 472.25 565.24 476.22 555.22 C 480.19 545.20 472.12 529.36 480.75 521.75 C 489.38 514.14 493.45 507.25 497.02 497.02 C 500.60 486.80 498.08 474.03 493.77 464.23 C 489.46 454.42 487.91 442.96 485.00 433.00
C 484.59 437.96 482.58 442.39 481.00 447.00 Z"/>
</g>
<g fill="None" fill-opacity="0.0" stroke="#D8EDED" stroke-opacity="1.00" stroke-width="0.3"><path d="
M 672.00 624.00 
C 681.08 574.25 710.22 531.86 717.00 481.00
C 709.59 504.12 704.45 530.83 694.31 553.31 C 684.16 575.78 671.79 599.95 672.00 624.00 Z"/>
</g>
<g fill="None" fill-opacity="0.0" stroke="#266062" stroke-opacity="1.00" stroke-width="0.3"><path d="
M 373.00 779.00 
C 373.43 782.41 374.22 785.71 375.00 789.00
C 391.25 770.64 403.08 744.12 398.00 718.00
C 418.76 717.81 420.80 694.37 427.00 680.00
C 430.55 671.77 432.64 664.47 432.00 655.00
C 428.90 640.42 425.22 626.04 424.00 611.00
C 417.30 618.06 412.74 625.91 409.00 636.00 C 405.26 646.08 414.60 659.29 413.00 670.00
C 398.13 672.75 395.68 685.30 385.77 695.77 C 375.86 706.24 385.13 726.57 375.75 737.75 C 366.38 748.94 371.87 764.81 373.00 779.00
M 406.00 701.00 
C 404.52 705.89 403.97 711.09 400.00 715.00
C 397.99 711.75 400.78 706.20 402.00 703.00
C 403.51 698.64 404.07 692.95 408.00 690.00
C 409.63 692.92 407.61 697.81 406.00 701.00 Z"/>
</g>
<g fill="None" fill-opacity="0.0" stroke="#9BBBBC" stroke-opacity="1.00" stroke-width="0.3"><path d="
M 688.00 672.00 
C 688.00 665.00 688.00 658.00 688.00 651.00
C 687.37 657.54 687.36 665.39 688.00 672.00 Z"/>
</g>
<g fill="None" fill-opacity="0.0" stroke="#C9E7E8" stroke-opacity="1.00" stroke-width="0.3"><path d="
M 402.00 703.00 
C 401.52 703.59 405.44 701.73 406.00 701.00
C 407.61 697.81 409.63 692.92 408.00 690.00
C 404.07 692.95 403.51 698.64 402.00 703.00 Z"/>
</g>
<g fill="None" fill-opacity="0.0" stroke="#6E9F9F" stroke-opacity="1.00" stroke-width="0.3"><path d="
M 402.00 703.00 
C 400.78 706.20 397.99 711.75 400.00 715.00
C 403.97 711.09 404.52 705.89 406.00 701.00
C 405.44 701.73 401.52 703.59 402.00 703.00 Z"/>
</g>
<g fill="None" fill-opacity="0.0" stroke="#D3E9E9" stroke-opacity="1.00" stroke-width="0.3"><path d="
M 260.00 881.00 
C 260.84 851.82 258.58 821.67 260.01 792.01 C 261.44 762.35 267.25 732.31 266.00 703.00
C 260.41 760.76 251.44 822.41 260.00 881.00 Z"/>
</g>
<g fill="None" fill-opacity="0.0" stroke="#245E61" stroke-opacity="1.00" stroke-width="0.3"><path d="
M 342.00 855.00 
C 344.45 857.57 351.18 857.84 354.00 856.00
C 355.48 849.52 361.29 842.27 364.00 836.00
C 368.67 826.54 369.44 814.05 365.98 804.02 C 362.51 794.00 363.28 781.17 359.00 773.00
C 353.27 786.27 350.97 799.33 347.33 813.33 C 343.68 827.33 340.86 840.92 342.00 855.00 Z"/>
</g>
<g fill="None" fill-opacity="0.0" stroke="#DCEFEF" stroke-opacity="1.00" stroke-width="0.3"><path d="
M 410.00 828.00 
C 414.11 817.90 417.40 807.66 418.00 797.00
C 414.52 807.17 412.07 817.45 410.00 828.00 Z"/>
</g>
<g fill="None" fill-opacity="0.0" stroke="#D7ECEC" stroke-opacity="1.00" stroke-width="0.3"><path d="
M 386.00 860.00 
C 387.53 848.22 388.73 836.55 391.00 825.00
C 386.34 836.45 385.64 847.52 386.00 860.00 Z"/>
</g>
<g fill="None" fill-opacity="0.0" stroke="#D7ECED" stroke-opacity="1.00" stroke-width="0.3"><path d="
M 539.00 1004.00 
C 536.62 960.20 541.66 914.46 536.00 871.00
C 535.03 883.93 536.60 897.24 537.00 912.00 C 537.40 926.76 537.44 943.28 537.00 958.00 C 536.56 972.72 535.28 990.86 539.00 1004.00 Z"/>
</g>
<g fill="None" fill-opacity="0.0" stroke="#D8EDED" stroke-opacity="1.00" stroke-width="0.3"><path d="
M 666.00 950.00 
C 671.38 930.16 675.20 909.97 678.00 889.00
C 671.91 907.27 668.05 930.05 666.00 950.00 Z"/>
</g>
<g fill="None" fill-opacity="0.0" stroke="#88A9A9" stroke-opacity="1.00" stroke-width="0.3"><path d="
M 558.00 993.00 
C 558.00 983.33 558.00 973.67 558.00 964.00
C 557.12 973.05 557.12 983.88 558.00 993.00 Z"/>
</g>
<g fill="#FEFEFE" fill-opacity="1.00" stroke="None">
<path d="
M 0.00 1131.00 
L 944.00 1131.00
L 944.00 0.00
L 0.00 0.00
L 0.00 1131.00
M 595.00 48.00 
C 611.65 53.05 627.01 59.83 644.02 63.98 C 661.03 68.12 677.23 79.75 671.22 98.22 C 665.22 116.69 659.85 130.20 654.23 147.23 C 648.61 164.25 642.39 179.70 638.07 196.07 C 633.75 212.45 624.58 232.91 605.00 227.00 C 585.42 221.09 576.15 214.41 556.98 210.02 C 537.80 205.64 526.26 193.69 533.00 174.00
C 535.17 158.41 542.45 141.49 547.78 125.78 C 553.10 110.06 559.21 92.74 564.32 77.32 C 569.43 61.90 576.56 42.40 595.00 48.00
M 520.00 421.00 
C 520.59 421.98 527.53 422.14 529.00 422.00
C 541.13 420.83 551.11 411.11 563.02 408.02 C 574.94 404.94 591.67 400.38 604.01 404.99 C 616.35 409.60 623.66 414.82 631.77 425.23 C 639.88 435.65 642.84 447.31 644.33 460.67 C 645.82 474.03 643.77 491.04 641.00 504.00 C 638.24 516.96 633.35 528.08 629.68 540.68 C 626.01 553.27 621.11 563.48 617.22 576.22 C 613.33 588.96 610.76 602.34 609.00 616.00 C 607.24 629.66 605.88 647.67 607.00 662.00 C 608.12 676.33 611.23 689.44 613.78 703.22 C 616.33 717.00 619.10 729.37 621.93 743.07 C 624.75 756.78 626.64 769.99 628.93 784.07 C 631.22 798.16 631.43 813.47 633.00 828.00 C 634.57 842.53 633.67 859.57 633.01 874.01 C 632.35 888.45 631.36 905.13 629.67 918.67 C 627.98 932.21 623.98 946.38 621.67 958.67 C 619.37 970.96 612.69 984.70 610.23 995.23 C 607.77 1005.76 596.02 1024.65 587.25 1011.75 C 578.47 998.86 588.58 982.33 587.00 968.00 C 585.42 953.67 589.66 936.82 589.00 922.00 C 588.34 907.18 588.91 889.55 588.00 875.00 C 587.09 860.45 585.06 845.66 583.07 831.93 C 581.09 818.20 578.56 804.59 575.07 791.93 C 571.59 779.26 567.94 767.06 563.68 755.32 C 559.41 743.58 553.89 733.37 548.08 722.92 C 542.28 712.47 535.99 703.75 527.75 695.25 C 519.51 686.75 511.10 678.91 500.77 674.23 C 490.44 669.55 472.44 663.93 461.33 666.33 C 450.22 668.73 434.04 670.34 427.00 680.00
C 420.80 694.37 418.76 717.81 398.00 718.00
C 403.08 744.12 391.25 770.64 375.00 789.00
C 374.22 785.71 373.43 782.41 373.00 779.00
C 370.92 786.80 363.27 798.59 368.99 808.01 C 374.71 817.43 369.66 828.23 364.00 836.00
C 361.29 842.27 355.48 849.52 354.00 856.00
C 350.18 872.68 354.01 889.76 352.00 907.00 C 349.99 924.24 355.65 941.53 354.00 959.00 C 352.35 976.47 360.96 990.50 356.67 1008.67 C 352.38 1026.84 335.91 1010.33 332.70 997.31 C 329.48 984.28 321.34 972.34 319.01 957.99 C 316.68 943.65 310.20 929.41 309.07 913.93 C 307.94 898.44 305.62 881.22 305.01 864.99 C 304.40 848.77 304.99 828.32 306.33 812.33 C 307.67 796.34 309.59 780.53 312.00 765.00 C 314.40 749.47 317.75 735.18 320.98 719.98 C 324.20 704.77 326.64 690.55 329.00 675.00 C 331.36 659.45 331.50 639.58 330.07 623.93 C 328.64 608.27 326.20 593.60 321.68 579.32 C 317.16 565.04 312.56 552.94 308.02 538.98 C 303.49 525.01 299.27 512.31 296.07 497.93 C 292.88 483.54 293.02 462.27 296.33 448.33 C 299.64 434.38 305.48 424.73 316.25 415.25 C 327.01 405.76 342.51 400.78 357.00 402.00 C 371.49 403.22 383.93 409.36 397.23 414.77 C 410.53 420.19 421.87 425.81 436.07 429.93 C 450.28 434.04 469.64 435.60 485.00 433.00
C 494.14 431.46 492.22 427.51 491.93 419.93 C 491.64 412.34 495.86 407.88 499.00 402.00
C 499.53 400.28 500.40 398.70 501.00 397.00
C 502.38 380.14 512.00 363.89 514.00 346.00
C 510.60 346.13 505.85 348.59 503.00 346.00
C 496.25 347.88 489.14 349.61 482.00 350.00
C 476.82 350.84 471.10 350.73 466.00 350.00
C 425.44 348.45 395.42 319.74 356.78 311.22 C 318.14 302.70 273.63 315.42 247.25 346.25 C 220.86 377.08 211.62 420.04 216.00 461.00 C 220.38 501.96 232.39 537.71 250.77 575.23 C 269.15 612.75 270.09 660.74 266.00 703.00
C 267.25 732.31 261.44 762.35 260.01 792.01 C 258.58 821.67 260.84 851.82 260.00 881.00
C 263.72 906.46 268.85 938.53 276.98 962.02 C 285.10 985.52 296.32 1008.76 310.75 1027.25 C 325.18 1045.73 357.37 1065.98 373.92 1041.92 C 390.47 1017.85 383.49 983.24 383.00 954.00 C 382.51 924.76 382.19 889.23 386.00 860.00
C 385.64 847.52 386.34 836.45 391.00 825.00
C 397.37 792.59 406.91 762.18 431.75 737.75 C 456.59 713.33 497.27 718.93 517.25 748.75 C 537.24 778.56 544.71 806.71 551.00 843.00 C 557.28 879.29 558.00 925.12 558.00 964.00
C 558.00 973.67 558.00 983.33 558.00 993.00
C 558.00 1013.84 562.36 1050.91 588.01 1051.99 C 613.65 1053.07 627.83 1031.55 639.31 1013.31 C 650.78 995.06 663.79 971.55 666.00 950.00
C 668.05 930.05 671.91 907.27 678.00 889.00
C 683.83 845.27 681.23 797.47 677.00 754.00 C 672.77 710.53 664.04 667.57 672.00 624.00
C 671.79 599.95 684.16 575.78 694.31 553.31 C 704.45 530.83 709.59 504.12 717.00 481.00
C 722.81 437.38 715.55 391.26 685.75 358.25 C 655.96 325.23 609.92 314.40 568.00 327.00
C 570.88 315.09 573.89 304.34 587.07 304.07 C 600.26 303.81 614.04 302.34 626.01 304.99 C 637.98 307.64 648.12 309.64 658.23 314.77 C 668.34 319.90 676.34 324.45 684.75 331.25 C 693.15 338.06 699.16 343.82 705.75 352.25 C 712.34 360.68 716.97 368.21 721.92 378.08 C 726.88 387.94 729.82 398.86 732.98 410.02 C 736.13 421.18 737.17 434.69 738.00 447.00 C 738.83 459.31 736.83 474.31 735.07 486.07 C 733.32 497.84 731.49 509.98 728.02 521.02 C 724.56 532.07 721.05 542.43 717.03 553.02 C 713.00 563.62 708.91 572.19 704.70 582.70 C 700.48 593.20 696.03 601.88 693.22 613.22 C 690.42 624.57 687.88 638.70 688.00 651.00
C 688.00 658.00 688.00 665.00 688.00 672.00
C 688.00 704.40 694.27 737.14 697.00 769.00 C 699.72 800.87 701.05 840.00 698.22 871.22 C 695.39 902.44 691.67 933.87 682.68 961.68 C 673.68 989.49 665.01 1011.36 648.25 1034.25 C 631.48 1057.13 609.68 1075.06 579.99 1070.01 C 550.31 1064.95 540.41 1030.04 539.00 1004.00
C 535.28 990.86 536.56 972.72 537.00 958.00 C 537.44 943.28 537.40 926.76 537.00 912.00 C 536.60 897.24 535.03 883.93 536.00 871.00
C 532.69 845.56 526.70 811.11 517.68 788.32 C 508.66 765.54 490.80 736.67 464.00 741.00 C 437.20 745.33 425.20 775.95 418.00 797.00
C 417.40 807.66 414.11 817.90 410.00 828.00
C 402.89 864.21 400.58 907.94 401.93 945.07 C 403.27 982.20 409.87 1026.16 387.75 1055.75 C 365.62 1085.33 322.32 1069.66 301.75 1045.25 C 281.18 1020.83 266.73 995.34 257.22 962.78 C 247.72 930.21 240.32 890.85 239.01 853.99 C 237.70 817.13 240.55 768.62 244.33 732.33 C 248.11 696.04 254.63 650.69 245.01 615.99 C 235.39 581.29 220.62 557.22 210.07 523.93 C 199.52 490.63 191.84 447.84 198.00 413.00 C 204.15 378.16 214.70 352.68 239.75 327.75 C 264.81 302.82 293.91 291.93 329.00 290.00 C 364.09 288.07 396.24 306.41 427.00 320.00
C 432.91 321.13 439.85 322.16 446.23 325.77 C 452.61 329.38 463.12 327.83 469.67 329.67 C 476.23 331.51 486.24 327.86 492.22 327.22 C 498.20 326.58 509.60 319.14 514.00 323.00
C 517.68 326.22 515.40 336.08 520.00 339.00
C 523.04 332.21 524.07 324.83 527.00 318.00
C 528.16 309.65 529.19 300.89 533.00 292.00 C 536.81 283.11 537.88 276.94 529.00 270.00
C 513.55 263.33 507.78 251.19 510.98 235.98 C 514.17 220.77 524.77 205.49 540.02 211.98 C 555.28 218.46 568.84 220.74 582.07 226.93 C 595.31 233.12 612.81 232.38 618.77 246.23 C 624.73 260.07 615.07 277.36 603.77 285.77 C 592.47 294.18 568.08 278.45 563.69 294.70 C 559.31 310.94 553.61 320.98 549.07 336.07 C 544.54 351.17 538.98 363.49 534.08 378.08 C 529.17 392.66 524.72 406.47 520.00 421.00 Z"/>
</g>
<g fill="#DAEEEE" fill-opacity="1.00" stroke="None">
<path d="
M 533.00 174.00 
C 540.09 153.28 548.88 123.41 556.98 103.98 C 565.07 84.55 567.64 45.98 595.00 48.00
C 576.56 42.40 569.43 61.90 564.32 77.32 C 559.21 92.74 553.10 110.06 547.78 125.78 C 542.45 141.49 535.17 158.41 533.00 174.00 Z"/>
</g>
<g fill="#276365" fill-opacity="1.00" stroke="None">
<path d="
M 533.00 174.00 
C 526.26 193.69 537.80 205.64 556.98 210.02 C 576.15 214.41 585.42 221.09 605.00 227.00 C 624.58 232.91 633.75 212.45 638.07 196.07 C 642.39 179.70 648.61 164.25 654.23 147.23 C 659.85 130.20 665.22 116.69 671.22 98.22 C 677.23 79.75 661.03 68.12 644.02 63.98 C 627.01 59.83 611.65 53.05 595.00 48.00
C 567.64 45.98 565.07 84.55 556.98 103.98 C 548.88 123.41 540.09 153.28 533.00 174.00
M 595.00 66.00 
C 603.44 66.48 613.96 73.80 622.68 76.32 C 631.39 78.84 642.51 81.80 650.68 86.32 C 658.84 90.85 648.41 105.56 646.68 113.68 C 644.95 121.79 639.14 132.58 637.02 142.02 C 634.91 151.47 629.58 159.58 627.08 170.08 C 624.57 180.57 620.05 186.36 617.68 198.68 C 615.31 211.00 605.58 207.49 595.77 203.23 C 585.96 198.97 577.49 196.72 567.32 193.68 C 557.15 190.64 546.29 186.16 551.98 174.98 C 557.66 163.79 557.60 156.85 561.98 146.98 C 566.36 137.10 567.62 127.52 571.78 118.78 C 575.93 110.03 577.35 97.70 581.32 90.32 C 585.29 82.94 585.31 65.45 595.00 66.00 Z"/>
</g>
<g fill="#7AC1BB" fill-opacity="1.00" stroke="None">
<path d="
M 595.00 66.00 
C 585.31 65.45 585.29 82.94 581.32 90.32 C 577.35 97.70 575.93 110.03 571.78 118.78 C 567.62 127.52 566.36 137.10 561.98 146.98 C 557.60 156.85 557.66 163.79 551.98 174.98 C 546.29 186.16 557.15 190.64 567.32 193.68 C 577.49 196.72 585.96 198.97 595.77 203.23 C 605.58 207.49 615.31 211.00 617.68 198.68 C 620.05 186.36 624.57 180.57 627.08 170.08 C 629.58 159.58 634.91 151.47 637.02 142.02 C 639.14 132.58 644.95 121.79 646.68 113.68 C 648.41 105.56 658.84 90.85 650.68 86.32 C 642.51 81.80 631.39 78.84 622.68 76.32 C 613.96 73.80 603.44 66.48 595.00 66.00
M 619.00 85.00 
C 629.64 86.99 621.69 104.25 619.02 111.02 C 616.36 117.80 611.75 131.45 609.02 139.02 C 606.30 146.60 602.16 160.11 599.03 167.02 C 595.89 173.94 594.76 192.27 584.00 190.00 C 573.23 187.72 581.53 171.33 584.31 164.31 C 587.08 157.28 590.85 143.54 593.98 135.98 C 597.10 128.41 600.70 114.85 603.93 107.93 C 607.16 101.00 608.68 83.08 619.00 85.00 Z"/>
</g>
<g fill="#236364" fill-opacity="1.00" stroke="None">
<path d="
M 619.00 85.00 
C 608.68 83.08 607.16 101.00 603.93 107.93 C 600.70 114.85 597.10 128.41 593.98 135.98 C 590.85 143.54 587.08 157.28 584.31 164.31 C 581.53 171.33 573.23 187.72 584.00 190.00 C 594.76 192.27 595.89 173.94 599.03 167.02 C 602.16 160.11 606.30 146.60 609.02 139.02 C 611.75 131.45 616.36 117.80 619.02 111.02 C 621.69 104.25 629.64 86.99 619.00 85.00 Z"/>
</g>
<g fill="#286365" fill-opacity="1.00" stroke="None">
<path d="
M 529.00 270.00 
C 535.27 272.71 543.11 270.91 539.01 282.01 C 534.91 293.10 530.90 306.61 527.00 318.00
C 524.07 324.83 523.04 332.21 520.00 339.00
C 515.40 336.08 517.68 326.22 514.00 323.00
C 485.58 336.20 454.69 332.23 427.00 320.00
C 396.24 306.41 364.09 288.07 329.00 290.00 C 293.91 291.93 264.81 302.82 239.75 327.75 C 214.70 352.68 204.15 378.16 198.00 413.00 C 191.84 447.84 199.52 490.63 210.07 523.93 C 220.62 557.22 235.39 581.29 245.01 615.99 C 254.63 650.69 248.11 696.04 244.33 732.33 C 240.55 768.62 237.70 817.13 239.01 853.99 C 240.32 890.85 247.72 930.21 257.22 962.78 C 266.73 995.34 281.18 1020.83 301.75 1045.25 C 322.32 1069.66 365.62 1085.33 387.75 1055.75 C 409.87 1026.16 403.27 982.20 401.93 945.07 C 400.58 907.94 402.89 864.21 410.00 828.00
C 412.07 817.45 414.52 807.17 418.00 797.00
C 425.20 775.95 437.20 745.33 464.00 741.00 C 490.80 736.67 508.66 765.54 517.68 788.32 C 526.70 811.11 532.69 845.56 536.00 871.00
C 541.66 914.46 536.62 960.20 539.00 1004.00
C 540.41 1030.04 550.31 1064.95 579.99 1070.01 C 609.68 1075.06 631.48 1057.13 648.25 1034.25 C 665.01 1011.36 673.68 989.49 682.68 961.68 C 691.67 933.87 695.39 902.44 698.22 871.22 C 701.05 840.00 699.72 800.87 697.00 769.00 C 694.27 737.14 688.00 704.40 688.00 672.00
C 687.36 665.39 687.37 657.54 688.00 651.00
C 687.88 638.70 690.42 624.57 693.22 613.22 C 696.03 601.88 700.48 593.20 704.70 582.70 C 708.91 572.19 713.00 563.62 717.03 553.02 C 721.05 542.43 724.56 532.07 728.02 521.02 C 731.49 509.98 733.32 497.84 735.07 486.07 C 736.83 474.31 738.83 459.31 738.00 447.00 C 737.17 434.69 736.13 421.18 732.98 410.02 C 729.82 398.86 726.88 387.94 721.92 378.08 C 716.97 368.21 712.34 360.68 705.75 352.25 C 699.16 343.82 693.15 338.06 684.75 331.25 C 676.34 324.45 668.34 319.90 658.23 314.77 C 648.12 309.64 637.98 307.64 626.01 304.99 C 614.04 302.34 600.26 303.81 587.07 304.07 C 573.89 304.34 570.88 315.09 568.00 327.00
C 609.92 314.40 655.96 325.23 685.75 358.25 C 715.55 391.26 722.81 437.38 717.00 481.00
C 710.22 531.86 681.08 574.25 672.00 624.00
C 664.04 667.57 672.77 710.53 677.00 754.00 C 681.23 797.47 683.83 845.27 678.00 889.00
C 675.20 909.97 671.38 930.16 666.00 950.00
C 663.79 971.55 650.78 995.06 639.31 1013.31 C 627.83 1031.55 613.65 1053.07 588.01 1051.99 C 562.36 1050.91 558.00 1013.84 558.00 993.00
C 557.12 983.88 557.12 973.05 558.00 964.00
C 558.00 925.12 557.28 879.29 551.00 843.00 C 544.71 806.71 537.24 778.56 517.25 748.75 C 497.27 718.93 456.59 713.33 431.75 737.75 C 406.91 762.18 397.37 792.59 391.00 825.00
C 388.73 836.55 387.53 848.22 386.00 860.00
C 382.19 889.23 382.51 924.76 383.00 954.00 C 383.49 983.24 390.47 1017.85 373.92 1041.92 C 357.37 1065.98 325.18 1045.73 310.75 1027.25 C 296.32 1008.76 285.10 985.52 276.98 962.02 C 268.85 938.53 263.72 906.46 260.00 881.00
C 251.44 822.41 260.41 760.76 266.00 703.00
C 270.09 660.74 269.15 612.75 250.77 575.23 C 232.39 537.71 220.38 501.96 216.00 461.00 C 211.62 420.04 220.86 377.08 247.25 346.25 C 273.63 315.42 318.14 302.70 356.78 311.22 C 395.42 319.74 425.44 348.45 466.00 350.00
C 471.26 350.20 476.75 350.28 482.00 350.00
C 489.14 349.61 496.25 347.88 503.00 346.00
C 508.49 344.47 513.99 342.63 519.00 340.00
C 514.14 359.31 506.74 377.90 501.00 397.00
C 500.40 398.70 499.53 400.28 499.00 402.00
C 492.76 422.09 494.55 438.90 505.00 458.00
C 512.82 448.74 513.94 432.25 520.00 421.00
C 524.72 406.47 529.17 392.66 534.08 378.08 C 538.98 363.49 544.54 351.17 549.07 336.07 C 553.61 320.98 559.31 310.94 563.69 294.70 C 568.08 278.45 592.47 294.18 603.77 285.77 C 615.07 277.36 624.73 260.07 618.77 246.23 C 612.81 232.38 595.31 233.12 582.07 226.93 C 568.84 220.74 555.28 218.46 540.02 211.98 C 524.77 205.49 514.17 220.77 510.98 235.98 C 507.78 251.19 513.55 263.33 529.00 270.00
M 534.00 228.00 
C 540.37 227.41 548.24 234.78 555.22 235.78 C 562.21 236.77 570.34 241.76 577.22 243.78 C 584.11 245.79 592.48 248.80 598.70 252.31 C 604.91 255.81 599.73 267.41 593.92 270.92 C 588.11 274.43 577.15 269.08 570.93 267.07 C 564.70 265.06 554.90 261.50 548.78 259.22 C 542.65 256.95 532.22 254.14 528.70 249.30 C 525.18 244.47 528.46 228.52 534.00 228.00 Z"/>
</g>
<g fill="#7FC6BF" fill-opacity="1.00" stroke="None">
<path d="
M 534.00 228.00 
C 528.46 228.52 525.18 244.47 528.70 249.30 C 532.22 254.14 542.65 256.95 548.78 259.22 C 554.90 261.50 564.70 265.06 570.93 267.07 C 577.15 269.08 588.11 274.43 593.92 270.92 C 599.73 267.41 604.91 255.81 598.70 252.31 C 592.48 248.80 584.11 245.79 577.22 243.78 C 570.34 241.76 562.21 236.77 555.22 235.78 C 548.24 234.78 540.37 227.41 534.00 228.00 Z"/>
</g>
<g fill="#DCF0F0" fill-opacity="1.00" stroke="None">
<path d="
M 527.00 318.00 
C 530.90 306.61 534.91 293.10 539.01 282.01 C 543.11 270.91 535.27 272.71 529.00 270.00
C 537.88 276.94 536.81 283.11 533.00 292.00 C 529.19 300.89 528.16 309.65 527.00 318.00 Z"/>
</g>
<g fill="#D7EBEC" fill-opacity="1.00" stroke="None">
<path d="
M 427.00 320.00 
C 454.69 332.23 485.58 336.20 514.00 323.00
C 509.60 319.14 498.20 326.58 492.22 327.22 C 486.24 327.86 476.23 331.51 469.67 329.67 C 463.12 327.83 452.61 329.38 446.23 325.77 C 439.85 322.16 432.91 321.13 427.00 320.00 Z"/>
</g>
<g fill="#DAEFF0" fill-opacity="1.00" stroke="None">
<path d="
M 503.00 346.00 
C 505.85 348.59 510.60 346.13 514.00 346.00
C 512.00 363.89 502.38 380.14 501.00 397.00
C 506.74 377.90 514.14 359.31 519.00 340.00
C 513.99 342.63 508.49 344.47 503.00 346.00 Z"/>
</g>
<g fill="#97B5B5" fill-opacity="1.00" stroke="None">
<path d="
M 482.00 350.00 
C 476.75 350.28 471.26 350.20 466.00 350.00
C 471.10 350.73 476.82 350.84 482.00 350.00 Z"/>
</g>
<g fill="#739592" fill-opacity="1.00" stroke="None">
<path d="
M 354.00 856.00 
C 351.18 857.84 344.45 857.57 342.00 855.00
C 343.71 876.12 336.79 899.32 339.00 921.00 C 341.21 942.68 341.15 965.34 342.00 986.00
C 329.07 952.61 322.38 922.64 319.02 885.98 C 315.67 849.32 319.17 806.54 324.78 770.78 C 330.39 735.02 339.16 701.32 343.00 665.00 C 346.84 628.68 340.59 591.41 328.68 558.32 C 316.77 525.23 304.14 493.75 307.98 456.98 C 311.81 420.21 351.17 406.37 381.68 422.32 C 412.19 438.27 445.23 449.05 481.00 447.00
C 482.58 442.39 484.59 437.96 485.00 433.00
C 469.64 435.60 450.28 434.04 436.07 429.93 C 421.87 425.81 410.53 420.19 397.23 414.77 C 383.93 409.36 371.49 403.22 357.00 402.00 C 342.51 400.78 327.01 405.76 316.25 415.25 C 305.48 424.73 299.64 434.38 296.33 448.33 C 293.02 462.27 292.88 483.54 296.07 497.93 C 299.27 512.31 303.49 525.01 308.02 538.98 C 312.56 552.94 317.16 565.04 321.68 579.32 C 326.20 593.60 328.64 608.27 330.07 623.93 C 331.50 639.58 331.36 659.45 329.00 675.00 C 326.64 690.55 324.20 704.77 320.98 719.98 C 317.75 735.18 314.40 749.47 312.00 765.00 C 309.59 780.53 307.67 796.34 306.33 812.33 C 304.99 828.32 304.40 848.77 305.01 864.99 C 305.62 881.22 307.94 898.44 309.07 913.93 C 310.20 929.41 316.68 943.65 319.01 957.99 C 321.34 972.34 329.48 984.28 332.70 997.31 C 335.91 1010.33 352.38 1026.84 356.67 1008.67 C 360.96 990.50 352.35 976.47 354.00 959.00 C 355.65 941.53 349.99 924.24 352.00 907.00 C 354.01 889.76 350.18 872.68 354.00 856.00 Z"/>
</g>
<g fill="#D3DDDC" fill-opacity="1.00" stroke="None">
<path d="
M 485.00 433.00 
C 487.91 442.96 489.46 454.42 493.77 464.23 C 498.08 474.03 500.60 486.80 497.02 497.02 C 493.45 507.25 489.38 514.14 480.75 521.75 C 472.12 529.36 480.19 545.20 476.22 555.22 C 472.25 565.24 467.64 571.90 456.75 576.75 C 445.87 581.61 459.52 593.04 455.02 603.02 C 450.53 613.01 448.97 623.24 441.00 630.00
C 436.38 616.80 436.25 602.25 432.07 588.93 C 427.89 575.61 434.59 562.17 450.07 559.07 C 465.56 555.98 460.29 539.51 455.02 527.98 C 449.76 516.44 458.58 497.62 469.00 493.00
C 470.25 499.25 470.50 505.78 472.00 512.00
C 478.77 505.58 486.64 490.50 479.69 480.31 C 472.75 470.11 476.57 457.77 481.00 447.00
C 445.23 449.05 412.19 438.27 381.68 422.32 C 351.17 406.37 311.81 420.21 307.98 456.98 C 304.14 493.75 316.77 525.23 328.68 558.32 C 340.59 591.41 346.84 628.68 343.00 665.00 C 339.16 701.32 330.39 735.02 324.78 770.78 C 319.17 806.54 315.67 849.32 319.02 885.98 C 322.38 922.64 329.07 952.61 342.00 986.00
C 341.15 965.34 341.21 942.68 339.00 921.00 C 336.79 899.32 343.71 876.12 342.00 855.00
C 340.86 840.92 343.68 827.33 347.33 813.33 C 350.97 799.33 353.27 786.27 359.00 773.00
C 363.28 781.17 362.51 794.00 365.98 804.02 C 369.44 814.05 368.67 826.54 364.00 836.00
C 369.66 828.23 374.71 817.43 368.99 808.01 C 363.27 798.59 370.92 786.80 373.00 779.00
C 371.87 764.81 366.38 748.94 375.75 737.75 C 385.13 726.57 375.86 706.24 385.77 695.77 C 395.68 685.30 398.13 672.75 413.00 670.00
C 414.60 659.29 405.26 646.08 409.00 636.00 C 412.74 625.91 417.30 618.06 424.00 611.00
C 425.22 626.04 428.90 640.42 432.00 655.00
C 432.30 656.46 433.82 658.88 433.00 661.00
C 464.16 646.57 503.48 653.46 528.70 677.30 C 553.91 701.15 565.98 724.32 577.98 757.03 C 589.97 789.73 596.61 826.88 600.00 864.00 C 603.39 901.12 600.27 949.82 600.00 987.00
C 612.34 951.12 617.71 915.87 620.00 877.00 C 622.29 838.13 618.75 795.03 611.07 757.93 C 603.39 720.82 595.44 683.16 594.00 645.00 C 592.56 606.84 605.64 571.37 616.78 537.78 C 627.91 504.18 642.98 464.43 621.08 431.92 C 599.18 399.40 553.91 426.40 528.00 437.00
C 528.51 432.04 526.89 426.53 529.00 422.00
C 527.53 422.14 520.59 421.98 520.00 421.00
C 513.94 432.25 512.82 448.74 505.00 458.00
C 494.55 438.90 492.76 422.09 499.00 402.00
C 495.86 407.88 491.64 412.34 491.93 419.93 C 492.22 427.51 494.14 431.46 485.00 433.00 Z"/>
</g>
<g fill="#749692" fill-opacity="1.00" stroke="None">
<path d="
M 529.00 422.00 
C 526.89 426.53 528.51 432.04 528.00 437.00
C 553.91 426.40 599.18 399.40 621.08 431.92 C 642.98 464.43 627.91 504.18 616.78 537.78 C 605.64 571.37 592.56 606.84 594.00 645.00 C 595.44 683.16 603.39 720.82 611.07 757.93 C 618.75 795.03 622.29 838.13 620.00 877.00 C 617.71 915.87 612.34 951.12 600.00 987.00
C 600.27 949.82 603.39 901.12 600.00 864.00 C 596.61 826.88 589.97 789.73 577.98 757.03 C 565.98 724.32 553.91 701.15 528.70 677.30 C 503.48 653.46 464.16 646.57 433.00 661.00
C 433.82 658.88 432.30 656.46 432.00 655.00
C 432.64 664.47 430.55 671.77 427.00 680.00
C 434.04 670.34 450.22 668.73 461.33 666.33 C 472.44 663.93 490.44 669.55 500.77 674.23 C 511.10 678.91 519.51 686.75 527.75 695.25 C 535.99 703.75 542.28 712.47 548.08 722.92 C 553.89 733.37 559.41 743.58 563.68 755.32 C 567.94 767.06 571.59 779.26 575.07 791.93 C 578.56 804.59 581.09 818.20 583.07 831.93 C 585.06 845.66 587.09 860.45 588.00 875.00 C 588.91 889.55 588.34 907.18 589.00 922.00 C 589.66 936.82 585.42 953.67 587.00 968.00 C 588.58 982.33 578.47 998.86 587.25 1011.75 C 596.02 1024.65 607.77 1005.76 610.23 995.23 C 612.69 984.70 619.37 970.96 621.67 958.67 C 623.98 946.38 627.98 932.21 629.67 918.67 C 631.36 905.13 632.35 888.45 633.01 874.01 C 633.67 859.57 634.57 842.53 633.00 828.00 C 631.43 813.47 631.22 798.16 628.93 784.07 C 626.64 769.99 624.75 756.78 621.93 743.07 C 619.10 729.37 616.33 717.00 613.78 703.22 C 611.23 689.44 608.12 676.33 607.00 662.00 C 605.88 647.67 607.24 629.66 609.00 616.00 C 610.76 602.34 613.33 588.96 617.22 576.22 C 621.11 563.48 626.01 553.27 629.68 540.68 C 633.35 528.08 638.24 516.96 641.00 504.00 C 643.77 491.04 645.82 474.03 644.33 460.67 C 642.84 447.31 639.88 435.65 631.77 425.23 C 623.66 414.82 616.35 409.60 604.01 404.99 C 591.67 400.38 574.94 404.94 563.02 408.02 C 551.11 411.11 541.13 420.83 529.00 422.00 Z"/>
</g>
<g fill="#235F60" fill-opacity="1.00" stroke="None">
<path d="
M 481.00 447.00 
C 476.57 457.77 472.75 470.11 479.69 480.31 C 486.64 490.50 478.77 505.58 472.00 512.00
C 470.50 505.78 470.25 499.25 469.00 493.00
C 458.58 497.62 449.76 516.44 455.02 527.98 C 460.29 539.51 465.56 555.98 450.07 559.07 C 434.59 562.17 427.89 575.61 432.07 588.93 C 436.25 602.25 436.38 616.80 441.00 630.00
C 448.97 623.24 450.53 613.01 455.02 603.02 C 459.52 593.04 445.87 581.61 456.75 576.75 C 467.64 571.90 472.25 565.24 476.22 555.22 C 480.19 545.20 472.12 529.36 480.75 521.75 C 489.38 514.14 493.45 507.25 497.02 497.02 C 500.60 486.80 498.08 474.03 493.77 464.23 C 489.46 454.42 487.91 442.96 485.00 433.00
C 484.59 437.96 482.58 442.39 481.00 447.00 Z"/>
</g>
<g fill="#D8EDED" fill-opacity="1.00" stroke="None">
<path d="
M 672.00 624.00 
C 681.08 574.25 710.22 531.86 717.00 481.00
C 709.59 504.12 704.45 530.83 694.31 553.31 C 684.16 575.78 671.79 599.95 672.00 624.00 Z"/>
</g>
<g fill="#266062" fill-opacity="1.00" stroke="None">
<path d="
M 373.00 779.00 
C 373.43 782.41 374.22 785.71 375.00 789.00
C 391.25 770.64 403.08 744.12 398.00 718.00
C 418.76 717.81 420.80 694.37 427.00 680.00
C 430.55 671.77 432.64 664.47 432.00 655.00
C 428.90 640.42 425.22 626.04 424.00 611.00
C 417.30 618.06 412.74 625.91 409.00 636.00 C 405.26 646.08 414.60 659.29 413.00 670.00
C 398.13 672.75 395.68 685.30 385.77 695.77 C 375.86 706.24 385.13 726.57 375.75 737.75 C 366.38 748.94 371.87 764.81 373.00 779.00
M 406.00 701.00 
C 404.52 705.89 403.97 711.09 400.00 715.00
C 397.99 711.75 400.78 706.20 402.00 703.00
C 403.51 698.64 404.07 692.95 408.00 690.00
C 409.63 692.92 407.61 697.81 406.00 701.00 Z"/>
</g>
<g fill="#9BBBBC" fill-opacity="1.00" stroke="None">
<path d="
M 688.00 672.00 
C 688.00 665.00 688.00 658.00 688.00 651.00
C 687.37 657.54 687.36 665.39 688.00 672.00 Z"/>
</g>
<g fill="#C9E7E8" fill-opacity="1.00" stroke="None">
<path d="
M 402.00 703.00 
C 401.52 703.59 405.44 701.73 406.00 701.00
C 407.61 697.81 409.63 692.92 408.00 690.00
C 404.07 692.95 403.51 698.64 402.00 703.00 Z"/>
</g>
<g fill="#6E9F9F" fill-opacity="1.00" stroke="None">
<path d="
M 402.00 703.00 
C 400.78 706.20 397.99 711.75 400.00 715.00
C 403.97 711.09 404.52 705.89 406.00 701.00
C 405.44 701.73 401.52 703.59 402.00 703.00 Z"/>
</g>
<g fill="#D3E9E9" fill-opacity="1.00" stroke="None">
<path d="
M 260.00 881.00 
C 260.84 851.82 258.58 821.67 260.01 792.01 C 261.44 762.35 267.25 732.31 266.00 703.00
C 260.41 760.76 251.44 822.41 260.00 881.00 Z"/>
</g>
<g fill="#245E61" fill-opacity="1.00" stroke="None">
<path d="
M 342.00 855.00 
C 344.45 857.57 351.18 857.84 354.00 856.00
C 355.48 849.52 361.29 842.27 364.00 836.00
C 368.67 826.54 369.44 814.05 365.98 804.02 C 362.51 794.00 363.28 781.17 359.00 773.00
C 353.27 786.27 350.97 799.33 347.33 813.33 C 343.68 827.33 340.86 840.92 342.00 855.00 Z"/>
</g>
<g fill="#DCEFEF" fill-opacity="1.00" stroke="None">
<path d="
M 410.00 828.00 
C 414.11 817.90 417.40 807.66 418.00 797.00
C 414.52 807.17 412.07 817.45 410.00 828.00 Z"/>
</g>
<g fill="#D7ECEC" fill-opacity="1.00" stroke="None">
<path d="
M 386.00 860.00 
C 387.53 848.22 388.73 836.55 391.00 825.00
C 386.34 836.45 385.64 847.52 386.00 860.00 Z"/>
</g>
<g fill="#D7ECED" fill-opacity="1.00" stroke="None">
<path d="
M 539.00 1004.00 
C 536.62 960.20 541.66 914.46 536.00 871.00
C 535.03 883.93 536.60 897.24 537.00 912.00 C 537.40 926.76 537.44 943.28 537.00 958.00 C 536.56 972.72 535.28 990.86 539.00 1004.00 Z"/>
</g>
<g fill="#D8EDED" fill-opacity="1.00" stroke="None">
<path d="
M 666.00 950.00 
C 671.38 930.16 675.20 909.97 678.00 889.00
C 671.91 907.27 668.05 930.05 666.00 950.00 Z"/>
</g>
<g fill="#88A9A9" fill-opacity="1.00" stroke="None">
<path d="
M 558.00 993.00 
C 558.00 983.33 558.00 973.67 558.00 964.00
C 557.12 973.05 557.12 983.88 558.00 993.00 Z"/>
</g>
</svg>